<?xml version="1.0" encoding="UTF-8" standalone="no"?>
<!-- Created with Inkscape (http://www.inkscape.org/) -->

<svg
   xmlns:dc="http://purl.org/dc/elements/1.1/"
   xmlns:cc="http://creativecommons.org/ns#"
   xmlns:rdf="http://www.w3.org/1999/02/22-rdf-syntax-ns#"
   xmlns:svg="http://www.w3.org/2000/svg"
   xmlns="http://www.w3.org/2000/svg"
   xmlns:xlink="http://www.w3.org/1999/xlink"
   xmlns:sodipodi="http://sodipodi.sourceforge.net/DTD/sodipodi-0.dtd"
   xmlns:inkscape="http://www.inkscape.org/namespaces/inkscape"
   version="1.1"
   id="svg2"
   width="2690.5251"
   height="2306.4099"
   viewBox="0 0 2690.5251 2306.4099"
   sodipodi:docname="crane_Real.svg"
   inkscape:export-filename="C:\Users\jsmall\Pictures\crane_Real.jpg.png"
   inkscape:export-xdpi="96"
   inkscape:export-ydpi="96"
   inkscape:version="0.92.3 (2405546, 2018-03-11)">
  <metadata
     id="metadata8">
    <rdf:RDF>
      <cc:Work
         rdf:about="">
        <dc:format>image/svg+xml</dc:format>
        <dc:type
           rdf:resource="http://purl.org/dc/dcmitype/StillImage" />
        <dc:title></dc:title>
      </cc:Work>
    </rdf:RDF>
  </metadata>
  <defs
     id="defs6" />
  <sodipodi:namedview
     pagecolor="#000000"
     bordercolor="#666666"
     borderopacity="1"
     objecttolerance="10"
     gridtolerance="10"
     guidetolerance="10"
     inkscape:pageopacity="0"
     inkscape:pageshadow="2"
     inkscape:window-width="1920"
     inkscape:window-height="1018"
     id="namedview4"
     showgrid="false"
     showborder="true"
     inkscape:pagecheckerboard="true"
     fit-margin-top="0"
     fit-margin-left="0"
     fit-margin-right="0"
     fit-margin-bottom="0"
     inkscape:zoom="0.24172795"
     inkscape:cx="449.7199"
     inkscape:cy="925.22286"
     inkscape:window-x="-8"
     inkscape:window-y="-8"
     inkscape:window-maximized="1"
     inkscape:current-layer="layer4" />
  <g
     inkscape:groupmode="layer"
     id="layer5"
     inkscape:label="Feet 01"
     style="display:inline"
     transform="translate(-711.96152,87.499998)">
    <path
       style="fill:#000000;stroke:none;stroke-width:1px;stroke-linecap:butt;stroke-linejoin:miter;stroke-opacity:1"
       d="m 2334.0022,866.37932 c 0,0 15,11 -0.5,31 0,0 179.5,59 197.5,72 0,0 25,12.5 39.5,33.49998 0,0 22.5,5 41,23.5 0,0 200,238 199,244 0,0 6.5,17.5 54.5,32 0,0 35,24.5 46.5,26.5 0,0 43,23 70,52 0,0 35.5,23 61,49 0,0 25.5,26.5 43,19.5 0,0 -32,-11 -27.5,-15.5 0,0 14.5,-6.5 1,-14.5 l -10,-5.5 c 0,0 4,2.5 10,-1.5 0,0 -23.5,-5 -21.5,-11 0,0 10,-6.5 -1.5,-13.5 0,0 -25.5,-12 -24,-26 0,0 17,14.5 32.5,5 0,0 -36,-7 -24,-12.5 0,0 7.5,-11 -5.5,-15 0,0 -107.5,-84 -143,-85 0,0 93.5,-23 101.5,-34.5 0,0 3.5,-6 -6.5,-8 0,0 11.5,-26 46.5,-6 0,0 -20,-34 -60,2 0,0 -95,33 -102,27 0,0 -5,-9 -21.5,0.5 0,0 -224.5,-239.49998 -213,-260.99998 0,0 -24.5,-35.5 -54,-34 0,0 -229.5,-69.5 -229,-74 z"
       id="path899"
       inkscape:connector-curvature="0" />
  </g>
  <g
     inkscape:groupmode="layer"
     id="layer6"
     inkscape:label="Feet 2"
     transform="translate(-711.96152,87.499998)">
    <path
       style="fill:#000000;stroke:none;stroke-width:1px;stroke-linecap:butt;stroke-linejoin:miter;stroke-opacity:1"
       d="m 2396.3849,733.96306 c 0,0 -5.6569,14.84924 3.5355,21.2132 0,0 183.1407,48.08327 226.2742,83.4386 0,0 -5.6569,15.55635 48.0832,33.23402 0,0 187.3833,130.81472 242.5377,197.98992 0,0 43.8406,4.9497 91.2167,36.7695 0,0 49.4975,13.4351 85.56,52.3259 0,0 28.9913,12.0209 59.3969,44.5478 0,0 33.2341,26.87 49.4975,16.2634 0,0 -29.6985,-4.2426 -26.87,-11.3137 0,0 6.3639,-4.9497 -4.9498,-13.435 0,0 -67.1751,-43.8406 -67.8822,-50.9117 0,0 -3.5356,-7.0711 8.4852,-0.7071 0,0 27.5772,22.6274 39.598,14.1421 0,0 -25.4558,-4.9497 -22.6274,-13.435 0,0 1.4142,-3.5355 -2.8284,-7.0711 0,0 -59.2202,-27.7539 -63.2861,-42.0728 0,0 95.4594,39.9515 120.9153,32.8804 0,0 -21.5668,-2.2981 -18.5616,-7.7781 0,0 -5.3033,-10.2531 -112.6067,-45.2549 0,0 11.1369,-0.8839 7.9549,-11.6672 0,0 16.2635,-1.2375 33.234,17.5009 0,0 -7.9549,-28.8146 -42.4264,-23.5113 0,0 -30.5823,1.9445 -30.5823,-2.2981 0,0 -85.9135,-21.5668 -108.7177,-40.1283 0,0 -179.6051,-135.94133 -177.6606,-139.65364 0,0 -64.5235,-57.45242 -66.9983,-66.99837 0,0 -257.5637,-87.68123 -270.2916,-74.06943 z"
       id="path919"
       inkscape:connector-curvature="0" />
  </g>
  <g
     inkscape:groupmode="layer"
     id="layer4"
     inkscape:label="Bird"
     style="display:inline"
     transform="translate(-711.96152,87.499998)">
    <path
       style="fill:#ffffff;stroke:none;stroke-width:1px;stroke-linecap:butt;stroke-linejoin:miter;stroke-opacity:1"
       d="m 1133,194.50001 c -131.25,-20.99999 -127.5,3.5 -127.5,3.5 -1.25,10.25001 10,10 10,10 L 918.25,206.25 c -3.25,6.5 177.75,23 177.75,23 20,0 68,14 68,14 27.25,2.25 62,23.5 62,23.5 61.25,26.75 68.75,103.5 68.75,103.5 1.75,13.75 -14.75,54.25 -14.75,54.25 -13.75,23 -15,69.5 -15,69.5 0.25,17.5 58.75,84.5 58.75,84.5 15.5,42.5 233,102.75 233,102.75 42.75,-3 223.75,34 223.75,34 9,14.75 -17.25,108.25 -17.25,108.25 2.25,27.25 -139.75,118.75 -139.75,118.75 -24.5,5.75 -197.75,89.5 -197.75,89.5 -1,6.75 -114.774,108.0924 -114.774,108.0924 -86.6206,67.1751 -97.0362,167.0397 -130.1077,200.1112 -7.6485,7.6485 -92.2774,115.2584 -92.2774,115.2584 -20.5061,57.9827 -221.67799,202.2325 -221.67799,202.2325 -115.2584,33.9411 -128.69343,56.9221 -128.69343,56.9221 30.75915,46.6691 200.46477,-23.6881 200.46477,-23.6881 10.25305,8.4853 -189.85817,142.8356 -189.85817,142.8356 58.68987,46.6691 210.71782,-60.1041 210.71782,-60.1041 4.94975,9.546 -159.80613,154.5029 -159.80613,154.5029 48.79037,50.2045 199.40411,-83.4386 199.40411,-83.4386 -69.29646,106.7731 -120.91526,172.534 -120.91526,172.534 47.72971,23.6881 143.54268,-77.7817 143.54268,-77.7817 -42.77996,48.4368 -33.58757,67.1751 -33.58757,67.1751 22.98097,31.4663 104.29827,-31.1127 104.29827,-31.1127 5.3033,0 12.7279,-50.2046 13.435,-51.2652 3.182,5.6568 -2.8284,37.1231 -2.8284,37.1231 14.4957,5.3033 74.2462,-106.7731 74.2462,-106.7731 8.8388,10.6066 -46.6691,115.9655 -46.6691,115.9655 -1.7677,27.5771 21.5668,24.7487 21.5668,24.7487 44.1942,20.5061 91.5703,-40.6586 91.5703,-40.6586 -34.6482,-76.7211 -21.5667,-100.4092 -21.5667,-100.4092 19.0919,90.8632 68.5893,100.7627 68.5893,100.7627 63.6396,15.9099 95.1059,-78.4888 95.1059,-78.4888 -8.1317,39.5979 11.6673,39.9515 11.6673,39.9515 49.1439,9.8995 74.9533,-42.4264 74.9533,-42.4264 4.9497,-30.4056 11.6672,-24.7487 11.6672,-24.7487 67.8823,-4.5962 77.7818,-65.4074 77.7818,-65.4074 5.6568,2.4749 16.2634,-3.5356 16.2634,-3.5356 4.5962,6.7176 21.9203,1.7678 21.9203,1.7678 44.1942,-18.0312 38.8909,-45.2548 38.8909,-45.2548 13.7886,-0.7071 20.5061,-16.2635 20.5061,-16.2635 -0.7071,8.4853 2.8284,9.546 2.8284,9.546 15.9099,0.7071 24.3952,-19.0919 24.3952,-19.0919 6.7175,-5.3033 10.9602,5.6568 10.9602,5.6568 9.8995,-1.7677 10.253,-13.7885 10.253,-13.7885 91.2168,4.5961 74.9534,-38.8909 74.9534,-38.8909 55.1543,30.4056 50.2045,-45.6084 50.2045,-45.6084 82.7315,4.5962 77.4282,-39.9515 77.4282,-39.9515 81.6709,9.1923 71.7714,-39.9516 71.7714,-39.9516 107.8337,19.4455 75.3068,-49.4975 75.3068,-49.4975 66.1145,-3.1819 66.8216,-43.8406 66.8216,-43.8406 89.449,-8.8388 67.8823,-42.7799 67.8823,-42.7799 36.7695,3.5355 54.8008,-14.8493 54.8008,-14.8493 22.2738,-15.5563 -21.9204,-60.8112 -21.9204,-60.8112 71.4178,13.7886 106.4196,-56.9221 106.4196,-56.9221 10.9602,-2.8284 44.1942,-36.7695 44.1942,-36.7695 -2.4749,-19.799 19.799,-45.2548 19.799,-45.2548 18.3848,1.0606 49.4975,-47.3762 49.4975,-47.3762 4.9497,-10.6066 -10.2531,-13.7886 -10.2531,-13.7886 8.4853,5.3033 44.5477,-5.6568 26.163,-5.3033 -18.3848,0.3536 -24.7488,-20.5061 -18.3848,-15.5563 6.3639,4.9497 34.6482,-1.7678 34.6482,-1.7678 -16.617,1.0607 -33.234,-7.0711 -33.234,-7.0711 -22.2739,-14.8492 19.0919,-10.6066 19.0919,-10.6066 24.3952,8.4853 7.7782,-30.7591 7.7782,-30.7591 -2.4749,-42.0729 27.5771,-4.5962 27.5771,-4.5962 15.2028,23.6881 33.5876,-5.6569 33.5876,-5.6569 0,-17.6776 10.253,-5.6568 10.253,-5.6568 4.5962,-11.6673 -3.8891,-27.9307 -3.8891,-27.9307 0,-8.8389 9.1924,4.9497 9.1924,4.9497 7.7782,-4.5962 -1.7677,-19.09186 -1.7677,-19.09186 -11.6673,-7.77818 19.799,-4.5962 19.799,-4.5962 -14.8493,-29.34493 61.5182,-14.84924 61.5182,-14.84924 -15.9099,-7.42462 -7.4246,-32.17336 -7.4246,-32.17336 -1.0606,15.55635 39.598,12.02082 39.598,12.02082 -9.8995,1.76776 -28.6378,-19.79899 -28.6378,-19.79899 -8.4853,-7.42463 31.1127,-7.07107 31.1127,-7.07107 -11.3137,-8.83884 -7.7782,-29.34493 -7.7782,-29.34493 12.3744,9.89949 33.9411,4.59619 33.9411,4.59619 -24.0416,-6.01041 -23.3345,-38.18377 -23.3345,-38.18377 13.0815,16.26346 117.7333,7.77818 117.7333,7.77818 -63.9932,-0.70711 -101.1163,-54.09367 -101.1163,-54.09367 -1.0606,-4.24264 25.1023,-11.31371 25.1023,-11.31371 -16.2634,-2.82843 -10.9601,-21.56676 -10.9601,-21.56676 -0.7072,-16.26345 18.7383,-2.47487 18.7383,-2.47487 3.182,-16.61701 -9.8995,-32.52691 -9.8995,-32.52691 -4.5962,-3.88909 6.0104,-0.70711 6.0104,-0.70711 -4.9498,-10.96015 -1.0607,-14.84924 -1.0607,-14.84924 -2.1213,-6.01041 7.0711,2.47487 7.0711,2.47487 5.6569,1.76777 2.8284,-8.48528 2.8284,-8.48528 6.7175,9.8995 13.0815,6.01041 13.0815,6.01041 4.9498,-8.13173 -6.364,-16.61701 -6.364,-16.61701 l 4.5962,0.35355 c -1.7677,-10.25304 -26.1629,-39.95153 -26.1629,-39.95153 -6.364,3.18198 -125.1579,-76.01398 -125.1579,-76.01398 -15.9099,6.36396 -280.3679,-189.15106 -280.3679,-189.15106 -43.487,-34.29468 -229.4561,-67.5287 -229.4561,-67.5287 -75.6604,-26.5165 -165.1094,1.41421 -165.1094,1.41421 -12.3744,-3.18198 -31.4663,27.22361 -31.4663,27.22361 -4.5962,1.06066 -8.1317,6.01041 -8.1317,6.01041 0,0 -65.1406,52.0548 -77.1406,82.5548 0,0 -61,8.5 -88.5,40 0,0 -90.5,75 -172.5,61 0,0 -116.5,-35 -108.5,-65 0,0 -0.5,-9 -6.5,-16.5 0,0 28,-46 27,-53.5 0,0 20.5,-144 -71.5,-208.5 0,0 -96.5,-106.5 -190,-111.5 0,0 -145.5,8.5 -184,38.5 0,0 91,13.50002 140,43.50001 z"
       id="path876"
       inkscape:connector-curvature="0"
       sodipodi:nodetypes="cccccccccccccccccscccccccccccccccccccccccccccccccccccccccccccccccccccccccccccccccccccccccccccccccccccccccccccccccccc" />
    <path
       style="fill:none;stroke:#000000;stroke-width:1px;stroke-linecap:butt;stroke-linejoin:miter;stroke-opacity:1"
       d="M 2708.219,733.60951 Z"
       id="path880"
       inkscape:connector-curvature="0" />
    <text
       xml:space="preserve"
       style="font-style:normal;font-weight:normal;font-size:40px;line-height:1.25;font-family:sans-serif;letter-spacing:0px;word-spacing:0px;fill:#aa8800;fill-opacity:1;stroke:none"
       id="text827"
       transform="translate(66.190112,-37.231938)"><textPath
         xlink:href="#path831"
         id="textPath833"
         style="font-style:normal;font-variant:normal;font-weight:normal;font-stretch:normal;font-size:192px;font-family:quicksand;-inkscape-font-specification:quicksand;fill:#aa8800;fill-opacity:1">CRANE <tspan
   style="fill:#4d4d4d"
   id="tspan837">CONSULTING</tspan></textPath></text>
    <path
       style="fill:none;stroke:none;stroke-width:1.06702781px;stroke-linecap:butt;stroke-linejoin:miter;stroke-opacity:1"
       d="m 986.01984,2218.91 c 0,0 877.70246,-56.2766 1674.38636,-1051.9408"
       id="path831"
       inkscape:connector-curvature="0" />
  </g>
  <g
     inkscape:groupmode="layer"
     id="layer1"
     inkscape:label="Bottom Beak"
     style="display:inline"
     transform="translate(-711.96152,87.499998)">
    <path
       style="fill:#aa8800;stroke:none;stroke-width:1px;stroke-linecap:butt;stroke-linejoin:miter;stroke-opacity:1"
       d="m 718.00001,194.50001 c 0,0 236.99999,-44 414.99999,0 0,0 -124,-20 -127.5,3.5 0,0 -0.5,9.5 10,10 0,0 -297.99999,-7 -297.49999,-13.5 z"
       id="path821"
       inkscape:connector-curvature="0" />
  </g>
  <g
     inkscape:groupmode="layer"
     id="layer2"
     inkscape:label="Top Beak"
     style="display:inline"
     transform="translate(-711.96152,87.499998)">
    <path
       style="fill:#333333;stroke:none;stroke-width:1px;stroke-linecap:butt;stroke-linejoin:miter;stroke-opacity:1"
       d="m 718,194.50001 c 0,0 -6.59927,-1.26349 -6,-3.5 1.56331,-5.83436 50.5,-22.5 267.00001,-39.5 0,0 60.99999,-6 153.99999,43 0,0 -207.99999,-31.5 -415,0"
       id="path823"
       inkscape:connector-curvature="0"
       sodipodi:nodetypes="csc" />
  </g>
</svg>
